<svg width="53" height="52" viewBox="0 0 53 52" fill="none" xmlns="http://www.w3.org/2000/svg">
<path d="M13.5 32.5C13.5 29.0522 14.8696 25.7456 17.3076 23.3076C19.7456 20.8696 23.0522 19.5 26.5 19.5M26.5 32.5L33 21.6667M7 32.5C7 21.7304 15.7304 13 26.5 13C37.2696 13 46 21.7304 46 32.5V36.8333C46 38.0299 45.03 39 43.8333 39H9.16667C7.97005 39 7 38.0299 7 36.8333V32.5ZM28.6667 32.5C28.6667 33.6966 27.6966 34.6667 26.5 34.6667C25.3034 34.6667 24.3333 33.6966 24.3333 32.5C24.3333 31.3034 25.3034 30.3333 26.5 30.3333C27.6966 30.3333 28.6667 31.3034 28.6667 32.5Z" stroke="white" stroke-width="3.25" stroke-linecap="round"/>
</svg>
