<svg width="65" height="64" viewBox="0 0 65 64" fill="none" xmlns="http://www.w3.org/2000/svg">
<path d="M8.5 37.3333C8.5 32.915 12.0817 29.3333 16.5 29.3333H48.5C52.9183 29.3333 56.5 32.915 56.5 37.3333V47.9999C56.5 49.4727 55.3061 50.6666 53.8333 50.6666H48.5C47.0272 50.6666 45.8333 49.4727 45.8333 47.9999V45.3333H19.1667V47.9999C19.1667 49.4727 17.9728 50.6666 16.5 50.6666H11.1667C9.69391 50.6666 8.5 49.4727 8.5 47.9999V37.3333Z" stroke="#135CE7" stroke-width="4" stroke-linejoin="round"/>
<path d="M13.8333 29.3333L17.951 16.98C18.6769 14.8022 20.715 13.3333 23.0106 13.3333H41.9892C44.2848 13.3333 46.3229 14.8022 47.0488 16.98L51.1666 29.3333" stroke="#135CE7" stroke-width="4" stroke-linecap="round" stroke-linejoin="round"/>
<path d="M51.1667 29.3334L56.5001 26.6667" stroke="#135CE7" stroke-width="4" stroke-linecap="round" stroke-linejoin="round"/>
<path d="M13.8333 29.3334L8.5 26.6667" stroke="#135CE7" stroke-width="4" stroke-linecap="round" stroke-linejoin="round"/>
<path d="M16.5 37.3333H21.8333" stroke="#135CE7" stroke-width="4" stroke-linecap="round" stroke-linejoin="round"/>
<path d="M43.1667 37.3333H48.5001" stroke="#135CE7" stroke-width="4" stroke-linecap="round" stroke-linejoin="round"/>
</svg>
