<svg width="53" height="52" viewBox="0 0 53 52" fill="none" xmlns="http://www.w3.org/2000/svg">
<path d="M17.8332 30.3333C12.5873 30.3333 8.21221 34.0621 7.21381 39.0138C6.97731 40.1868 7.96996 41.1666 9.16657 41.1666H11.3332M37.3332 16.25C37.3332 19.2415 34.9081 21.6666 31.9166 21.6666C28.925 21.6666 26.4999 19.2415 26.4999 16.25C26.4999 13.2584 28.925 10.8333 31.9166 10.8333C34.9081 10.8333 37.3332 13.2584 37.3332 16.25ZM22.1666 21.6666C22.1666 24.0599 20.2265 26 17.8332 26C15.44 26 13.4999 24.0599 13.4999 21.6666C13.4999 19.2734 15.44 17.3333 17.8332 17.3333C20.2265 17.3333 22.1666 19.2734 22.1666 21.6666ZM18.026 39.0108C19.1386 32.8571 24.9342 28.1666 31.9166 28.1666C38.8989 28.1666 44.6945 32.8571 45.8071 39.0108C46.02 40.1883 45.0299 41.1666 43.8332 41.1666H19.9999C18.8033 41.1666 17.8131 40.1883 18.026 39.0108Z" stroke="#135CE7" stroke-width="3.25" stroke-linecap="round"/>
</svg>
