<svg width="40" height="40" viewBox="0 0 40 40" fill="none" xmlns="http://www.w3.org/2000/svg">
<path d="M17.9168 15C17.9168 14.3096 17.3572 13.75 16.6668 13.75C15.9765 13.75 15.4168 14.3096 15.4168 15V16.6666C15.4168 17.357 15.9765 17.9166 16.6668 17.9166C17.3572 17.9166 17.9168 17.357 17.9168 16.6666V15Z" fill="#135CE7"/>
<path d="M23.3335 13.75C24.0239 13.75 24.5835 14.3096 24.5835 15V16.6666C24.5835 17.357 24.0239 17.9166 23.3335 17.9166C22.6431 17.9166 22.0835 17.357 22.0835 16.6666V15C22.0835 14.3096 22.6431 13.75 23.3335 13.75Z" fill="#135CE7"/>
<path d="M12.6904 20.5948C13.2799 20.2411 14.0437 20.4299 14.4009 21.0161L14.4067 21.0253C14.4146 21.0375 14.4298 21.0606 14.4526 21.093C14.4982 21.1581 14.5734 21.2603 14.6792 21.3872C14.8915 21.6421 15.2224 21.9913 15.679 22.3425C16.5827 23.0377 17.9879 23.75 20.0002 23.75C22.0124 23.75 23.4176 23.0377 24.3214 22.3425C24.7779 21.9913 25.1088 21.6421 25.3211 21.3872C25.427 21.2603 25.5022 21.1581 25.5477 21.093C25.5705 21.0606 25.5857 21.0375 25.5936 21.0253L25.5995 21.0161C25.9566 20.4299 26.7205 20.2411 27.3099 20.5948C27.9019 20.95 28.0939 21.7178 27.7387 22.3098L26.6668 21.6666C27.7387 22.3098 27.739 22.3092 27.7387 22.3098L27.7373 22.3121L27.7357 22.3147L27.732 22.3209L27.7221 22.3369C27.7145 22.3491 27.7047 22.3645 27.6929 22.3829C27.6692 22.4195 27.6369 22.4681 27.5958 22.5267C27.5138 22.6439 27.3963 22.8022 27.2417 22.9877C26.9332 23.3579 26.4724 23.842 25.8456 24.3241C24.5827 25.2955 22.6546 26.25 20.0002 26.25C17.3457 26.25 15.4176 25.2955 14.1547 24.3241C13.5279 23.842 13.0671 23.3579 12.7586 22.9877C12.604 22.8022 12.4865 22.6439 12.4045 22.5267C12.3635 22.4681 12.3312 22.4195 12.3074 22.3829C12.2956 22.3645 12.2859 22.3491 12.2782 22.3369L12.2684 22.3209L12.2646 22.3147L12.263 22.3121C12.2627 22.3115 12.2616 22.3098 13.3335 21.6666L12.2616 22.3098C11.9064 21.7178 12.0984 20.95 12.6904 20.5948Z" fill="#135CE7"/>
<path fill-rule="evenodd" clip-rule="evenodd" d="M36.6668 20C36.6668 29.2047 29.2049 36.6666 20.0002 36.6666C10.7954 36.6666 3.3335 29.2047 3.3335 20C3.3335 10.7952 10.7954 3.33331 20.0002 3.33331C29.2049 3.33331 36.6668 10.7952 36.6668 20ZM34.1668 20C34.1668 27.824 27.8242 34.1666 20.0002 34.1666C12.1761 34.1666 5.8335 27.824 5.8335 20C5.8335 12.1759 12.1761 5.83331 20.0002 5.83331C27.8242 5.83331 34.1668 12.1759 34.1668 20Z" fill="#135CE7"/>
</svg>
