<svg width="53" height="52" viewBox="0 0 53 52" fill="none" xmlns="http://www.w3.org/2000/svg">
<path d="M14.0417 30.3333C14.0417 31.2308 14.7693 31.9583 15.6667 31.9583C16.5642 31.9583 17.2917 31.2308 17.2917 30.3333H14.0417ZM18.8398 22.673L19.9888 23.8221L18.8398 22.673ZM26.5001 21.125C27.3975 21.125 28.1251 20.3975 28.1251 19.5C28.1251 18.6025 27.3975 17.875 26.5001 17.875V21.125ZM20.0001 4.875C19.1026 4.875 18.3751 5.60254 18.3751 6.5C18.3751 7.39746 19.1026 8.125 20.0001 8.125V4.875ZM33.0001 8.125C33.8975 8.125 34.6251 7.39746 34.6251 6.5C34.6251 5.60254 33.8975 4.875 33.0001 4.875V8.125ZM38.351 16.1843C37.7164 16.8189 37.7164 17.8478 38.351 18.4824C38.9856 19.117 40.0145 19.117 40.6491 18.4824L38.351 16.1843ZM44.9825 14.149C45.6171 13.5144 45.6171 12.4856 44.9825 11.851C44.3479 11.2163 43.319 11.2163 42.6844 11.851L44.9825 14.149ZM25.351 29.1843C24.7164 29.8189 24.7164 30.8478 25.351 31.4824C25.9856 32.117 27.0145 32.117 27.6491 31.4824L25.351 29.1843ZM34.1491 24.9824C34.7837 24.3478 34.7837 23.3189 34.1491 22.6843C33.5145 22.0497 32.4856 22.0497 31.851 22.6843L34.1491 24.9824ZM42.8158 9.68428C42.1812 9.04968 41.1523 9.04968 40.5177 9.68428C39.8831 10.3189 39.8831 11.3478 40.5177 11.9824L42.8158 9.68428ZM44.851 16.3157C45.4856 16.9503 46.5145 16.9503 47.1491 16.3157C47.7837 15.6811 47.7837 14.6522 47.1491 14.0176L44.851 16.3157ZM42.2084 30.3333C42.2084 39.0088 35.1756 46.0417 26.5001 46.0417V49.2917C36.9705 49.2917 45.4584 40.8037 45.4584 30.3333H42.2084ZM26.5001 46.0417C17.8246 46.0417 10.7917 39.0088 10.7917 30.3333H7.54175C7.54175 40.8037 16.0297 49.2917 26.5001 49.2917V46.0417ZM10.7917 30.3333C10.7917 21.6579 17.8246 14.625 26.5001 14.625V11.375C16.0297 11.375 7.54175 19.8629 7.54175 30.3333H10.7917ZM26.5001 14.625C35.1756 14.625 42.2084 21.6579 42.2084 30.3333H45.4584C45.4584 19.8629 36.9705 11.375 26.5001 11.375V14.625ZM17.2917 30.3333C17.2917 27.8911 18.2619 25.549 19.9888 23.8221L17.6907 21.524C15.3543 23.8604 14.0417 27.0292 14.0417 30.3333H17.2917ZM19.9888 23.8221C21.7157 22.0952 24.0579 21.125 26.5001 21.125V17.875C23.1959 17.875 20.0271 19.1876 17.6907 21.524L19.9888 23.8221ZM27.0417 30.3333C27.0417 30.6325 26.7992 30.875 26.5001 30.875V34.125C28.5942 34.125 30.2917 32.4274 30.2917 30.3333H27.0417ZM26.5001 30.875C26.2009 30.875 25.9584 30.6325 25.9584 30.3333H22.7084C22.7084 32.4274 24.406 34.125 26.5001 34.125V30.875ZM25.9584 30.3333C25.9584 30.0342 26.2009 29.7917 26.5001 29.7917V26.5417C24.406 26.5417 22.7084 28.2393 22.7084 30.3333H25.9584ZM26.5001 29.7917C26.7992 29.7917 27.0417 30.0342 27.0417 30.3333H30.2917C30.2917 28.2393 28.5942 26.5417 26.5001 26.5417V29.7917ZM20.0001 8.125H33.0001V4.875H20.0001V8.125ZM40.6491 18.4824L44.9825 14.149L42.6844 11.851L38.351 16.1843L40.6491 18.4824ZM27.6491 31.4824L34.1491 24.9824L31.851 22.6843L25.351 29.1843L27.6491 31.4824ZM40.5177 11.9824L44.851 16.3157L47.1491 14.0176L42.8158 9.68428L40.5177 11.9824Z" fill="#135CE7"/>
</svg>
